<?xml version="1.0" encoding="UTF-8" standalone="no"?>
<!-- Created with Inkscape (http://www.inkscape.org/) -->

<svg
   inkscape:version="1.2.2 (732a01da63, 2022-12-09)"
   sodipodi:docname="star-background.svg"
   width="2560"
   height="2560"
   viewBox="0 0 677.33331 677.33331"
   version="1.1"
   id="svg5"
   xmlns:inkscape="http://www.inkscape.org/namespaces/inkscape"
   xmlns:sodipodi="http://sodipodi.sourceforge.net/DTD/sodipodi-0.dtd"
   xmlns="http://www.w3.org/2000/svg"
   xmlns:svg="http://www.w3.org/2000/svg">
  <sodipodi:namedview
     id="namedview7"
     pagecolor="#ffffff"
     bordercolor="#000000"
     borderopacity="0.25"
     inkscape:showpageshadow="2"
     inkscape:pageopacity="0.0"
     inkscape:pagecheckerboard="0"
     inkscape:deskcolor="#d1d1d1"
     inkscape:document-units="mm"
     showgrid="false"
     showguides="true"
     inkscape:zoom="0.11915159"
     inkscape:cx="923.19372"
     inkscape:cy="-570.70157"
     inkscape:window-width="1366"
     inkscape:window-height="715"
     inkscape:window-x="-8"
     inkscape:window-y="-8"
     inkscape:window-maximized="1"
     inkscape:current-layer="layer1" />
  <defs
     id="defs2" />
  <g
     inkscape:label="Camada 1"
     inkscape:groupmode="layer"
     id="layer1">
    <g
       id="g13904"
       transform="matrix(2.2362259,0,0,2.2362259,38.146668,17.47737)">
      <path
         d="M 414.629,322.941 165.38,265.339 24.7528,479.037 2.51372,224.187 -244.181,156.479 -8.67717,56.5751 -20.5153,-198.969 147.274,-5.8629 386.652,-96.0891 254.847,123.16 Z"
         style="fill:none;fill-opacity:0;stroke:#003883;stroke-width:9.73152px"
         id="path13886" />
      <path
         d="M 379.51,303.044 159.758,251.643 35.3736,439.75 16.1721,214.958 -201.31,154.651 6.57373,67.1233 -3.4527,-158.255 144.228,12.4416 355.514,-66.5425 238.902,126.481 Z"
         style="fill:none;fill-opacity:0;stroke:#003883;stroke-width:9.73151px"
         id="path13888" />
      <path
         d="M 344.39,283.148 154.136,237.947 45.9943,400.463 29.8305,205.729 -158.439,152.823 21.8246,77.6716 13.6099,-117.542 141.183,30.746 324.375,-36.9958 222.956,129.802 Z"
         style="fill:none;fill-opacity:0;stroke:#003883;stroke-width:9.7315px"
         id="path13890" />
      <path
         d="M 309.271,263.251 148.514,224.252 56.6151,361.176 43.4889,196.5 -115.568,150.995 37.0755,88.2198 30.6724,-76.8281 138.138,49.0505 293.237,-7.44919 207.011,133.123 Z"
         style="fill:none;fill-opacity:0;stroke:#003883;stroke-width:9.73149px"
         id="path13892" />
      <path
         d="M 274.151,243.355 142.892,210.556 67.2359,321.889 57.1474,187.271 -72.6969,149.167 52.3264,98.7681 47.735,-36.1145 135.093,67.3549 262.099,22.0974 191.066,136.444 Z"
         style="fill:none;fill-opacity:0;stroke:#003883;stroke-width:9.73147px"
         id="path13894" />
      <path
         d="M 239.032,223.458 137.271,196.86 77.8567,282.601 70.8058,178.042 -29.8259,147.338 67.5773,109.316 64.7976,4.5991 132.047,85.6594 230.961,51.6441 175.12,139.764 Z"
         style="fill:none;fill-opacity:0;stroke:#003883;stroke-width:9.73146px"
         id="path13896" />
      <path
         d="M 203.913,203.562 131.649,183.165 88.4774,243.314 84.4642,168.813 13.0452,145.51 82.8282,119.865 81.8601,45.3127 129.002,103.964 199.822,81.1907 159.175,143.085 Z"
         style="fill:none;fill-opacity:0;stroke:#003883;stroke-width:9.73145px"
         id="path13898" />
      <path
         d="m 168.793,183.666 -42.766,-14.197 -26.9288,34.558 -0.9756,-44.443 -42.2064,-15.902 42.1629,-13.269 0.8436,-44.3867 27.0343,36.2417 42.727,-11.531 -25.455,35.669 z"
         style="fill:none;fill-opacity:0;stroke:#003883;stroke-width:9.73144px"
         id="path13900" />
      <path
         d="m 133.674,163.769 -13.269,-7.996 -10.686,8.967 2.062,-14.385 -12.9938,-8.501 14.5428,-0.893 2.655,-14.221 6.927,13.833 14.634,-0.289 -10.262,9.443 z"
         style="fill:none;fill-opacity:0;stroke:#003883;stroke-width:9.73143px"
         id="path13902" />
    </g>
  </g>
</svg>
